<svg width="140" height="140" viewBox="0 0 140 140" fill="none" xmlns="http://www.w3.org/2000/svg">
<g clip-path="url(#clip0)">
<path d="M126.461 128.025L117.181 137.304C115.523 138.954 110.67 139.996 110.525 139.996C81.1479 140.244 52.8652 128.709 32.0804 107.919C11.236 87.0787 -0.312019 58.6848 0.00844931 29.2228C0.00844931 29.2055 1.07239 24.489 2.72587 22.8484L12.0055 13.5603C15.4106 10.1595 21.9299 8.62147 26.4971 10.1423L28.4538 10.8002C33.021 12.3211 37.7931 17.3624 39.0577 22.0021L43.7316 39.1513C45.0003 43.7997 43.2957 50.413 39.895 53.8138L33.6915 60.0172C39.7755 82.5668 57.4584 100.246 79.995 106.338L86.1985 100.134C89.5995 96.7332 96.2301 95.033 100.879 96.2977L118.028 100.98C122.659 102.236 127.701 107.004 129.23 111.575L129.88 113.532C131.399 118.105 129.861 124.624 126.461 128.025ZM78.7474 69.9979H87.4971C87.4971 60.3339 79.6617 52.4985 69.9977 52.4985V61.2482C74.8208 61.2482 78.7474 65.1786 78.7474 69.9979ZM113.746 69.9979C113.746 45.8335 94.1618 26.2491 69.9977 26.2491V34.9991C89.2998 34.9991 104.996 50.7042 104.996 69.9979H113.746ZM69.9977 0V8.74971C103.766 8.74971 131.246 36.2293 131.246 69.9979H139.995C139.995 31.3419 108.654 0 69.9977 0Z" fill="white"/>
</g>
<defs>
<clipPath id="clip0">
<rect width="140" height="140" fill="white"/>
</clipPath>
</defs>
</svg>
