<svg width="140" height="140" viewBox="0 0 140 140" fill="none" xmlns="http://www.w3.org/2000/svg">
<path d="M115.944 34.8446C115.446 32.9769 114.434 30.9868 113.685 29.2444C104.727 7.71554 85.1532 0 69.3484 0C48.1909 0 24.8884 14.187 21.7773 43.4298V49.4043C21.7773 49.6536 21.8633 51.8934 21.9853 53.0137C23.7293 66.9501 34.7262 81.7614 42.9391 95.6978C51.775 110.629 60.9435 125.318 70.0271 140C75.6282 130.418 81.2092 120.711 86.6827 111.378C88.1744 108.639 89.9061 105.901 91.3994 103.287C92.3948 101.546 94.2963 99.8056 95.1651 98.1859C104.001 82.0091 118.223 65.7074 118.223 49.6533V43.0581C118.223 41.3177 116.065 35.2199 115.944 34.8446ZM69.7358 64.8363C63.5166 64.8363 56.7092 61.7266 53.3491 53.1384C52.8485 51.7713 52.8888 49.0316 52.8888 48.7806V44.9229C52.8888 33.9745 62.185 28.9958 70.2722 28.9958C80.2285 28.9958 87.9287 36.9613 87.9287 46.9175C87.9287 56.8734 79.692 64.8363 69.7358 64.8363Z" fill="white"/>
</svg>
