<svg width="63" height="142" viewBox="0 0 63 142" fill="none" xmlns="http://www.w3.org/2000/svg">
<g filter="url(#filter0_d)">
<path d="M10.5 27.5C10.5 15.902 19.902 6.5 31.5 6.5C43.098 6.5 52.5 15.902 52.5 27.5V106.5C52.5 118.098 43.098 127.5 31.5 127.5C19.902 127.5 10.5 118.098 10.5 106.5V27.5Z" stroke="white" stroke-width="13"/>
</g>
<g filter="url(#filter1_d)">
<path d="M39.6338 53.9579C39.6338 49.2518 35.8188 45.4368 31.1127 45.4368C26.4066 45.4368 22.5915 49.2518 22.5915 53.9579V79.272C22.5915 83.9781 26.4066 87.7931 31.1127 87.7931C35.8188 87.7931 39.6338 83.9781 39.6338 79.272V53.9579Z" fill="white"/>
</g>
<defs>
<filter id="filter0_d" x="0" y="0" width="63" height="142" filterUnits="userSpaceOnUse" color-interpolation-filters="sRGB">
<feFlood flood-opacity="0" result="BackgroundImageFix"/>
<feColorMatrix in="SourceAlpha" type="matrix" values="0 0 0 0 0 0 0 0 0 0 0 0 0 0 0 0 0 0 127 0"/>
<feOffset dy="4"/>
<feGaussianBlur stdDeviation="2"/>
<feColorMatrix type="matrix" values="0 0 0 0 0 0 0 0 0 0 0 0 0 0 0 0 0 0 0.25 0"/>
<feBlend mode="normal" in2="BackgroundImageFix" result="effect1_dropShadow"/>
<feBlend mode="normal" in="SourceGraphic" in2="effect1_dropShadow" result="shape"/>
</filter>
<filter id="filter1_d" x="18.5916" y="45.4368" width="25.0423" height="50.3563" filterUnits="userSpaceOnUse" color-interpolation-filters="sRGB">
<feFlood flood-opacity="0" result="BackgroundImageFix"/>
<feColorMatrix in="SourceAlpha" type="matrix" values="0 0 0 0 0 0 0 0 0 0 0 0 0 0 0 0 0 0 127 0"/>
<feOffset dy="4"/>
<feGaussianBlur stdDeviation="2"/>
<feColorMatrix type="matrix" values="0 0 0 0 0 0 0 0 0 0 0 0 0 0 0 0 0 0 0.25 0"/>
<feBlend mode="normal" in2="BackgroundImageFix" result="effect1_dropShadow"/>
<feBlend mode="normal" in="SourceGraphic" in2="effect1_dropShadow" result="shape"/>
</filter>
</defs>
</svg>
